<?xml version="1.0" encoding="iso-8859-1"?>
<!-- Generator: Adobe Illustrator 19.0.0, SVG Export Plug-In . SVG Version: 6.00 Build 0)  -->
<svg version="1.1" id="Layer_1" xmlns="http://www.w3.org/2000/svg" xmlns:xlink="http://www.w3.org/1999/xlink" x="0px" y="0px"
	 viewBox="0 0 419.58 419.58" style="enable-background:new 0 0 419.58 419.58;" xml:space="preserve">
<g>
	<path style="fill:#2488FF;" d="M347.033,68.436l-28.228,28.364c30.223,27.667,47.86,67.098,47.86,108.459
		c0,80.987-65.887,146.874-146.874,146.874v40c103.042,0,186.874-83.832,186.874-186.874c0-30.084-7.324-59.991-21.181-86.488
		C375.667,99.999,362.567,82.909,347.033,68.436z"/>
	<path style="fill:#2488FF;" d="M12.916,214.321c0,30.084,7.324,59.991,21.181,86.488c9.816,18.771,22.916,35.86,38.449,50.333
		L94.96,328.62l90.96,90.96V237.23l-85.146,85.549c-30.222-27.667-47.858-67.097-47.858-108.458
		c0-80.987,65.887-146.874,146.874-146.874v-40C96.748,27.447,12.916,111.279,12.916,214.321z"/>
	<polygon style="fill:#2488FF;" points="415.14,0 233.66,0 324.62,90.95 	"/>
	<polygon style="fill:#005ECE;" points="233.66,0 233.66,182.35 324.62,90.95 	"/>
	<polygon style="fill:#005ECE;" points="94.96,328.62 72.546,351.143 4.44,419.58 185.92,419.58 	"/>
</g>
<g>
</g>
<g>
</g>
<g>
</g>
<g>
</g>
<g>
</g>
<g>
</g>
<g>
</g>
<g>
</g>
<g>
</g>
<g>
</g>
<g>
</g>
<g>
</g>
<g>
</g>
<g>
</g>
<g>
</g>
</svg>
