<svg height="512" viewBox="0 0 128 128" width="512" xmlns="http://www.w3.org/2000/svg"><path d="m76.487 80.769 31.623-9.718-64.263-26.922 19.345 66.934z" fill="#d2f4e4"/><g fill="#2030a0"><path d="m73.563 87.438a1.747 1.747 0 0 0 -2.305.9l-3.54 8.06a1.791 1.791 0 0 0 -.148.714 1.749 1.749 0 0 0 3.372.648l3.52-8.014a1.749 1.749 0 0 0 -.899-2.308z"/><path d="m67.674 100.848a1.749 1.749 0 0 0 -2.306.9l-1.838 4.186-16.984-58.777 18.178 7.617a1.75 1.75 0 1 0 1.352-3.228l-21.55-9.03a1.75 1.75 0 0 0 -2.357 2.1l19.34 66.93a1.75 1.75 0 0 0 1.565 1.26h.116a1.75 1.75 0 0 0 1.6-1.046l3.781-8.61a1.75 1.75 0 0 0 -.897-2.302z"/><path d="m108.786 69.436-23.91-10.02a1.75 1.75 0 0 0 -1.352 3.228l19.454 8.156-27 8.3a1.752 1.752 0 0 0 -1.088.97l-1.29 2.94a1.75 1.75 0 1 0 3.2 1.406l.967-2.206 30.854-9.484a1.75 1.75 0 0 0 .162-3.287z"/><path d="m69.066 54.694a1.749 1.749 0 0 0 .934 2.29l8.21 3.44a1.75 1.75 0 1 0 1.356-3.224l-8.21-3.44a1.75 1.75 0 0 0 -2.29.934z"/><path d="m24.718 43.32h-4.827a1.75 1.75 0 0 0 0 3.5h4.827a1.75 1.75 0 0 0 0-3.5z"/><path d="m30.329 60.459-3.557 3.557a1.75 1.75 0 0 0 2.475 2.475l3.553-3.557a1.75 1.75 0 0 0 -2.474-2.475z"/><path d="m66.612 29.938 3.239-3.238a1.75 1.75 0 0 0 -2.475-2.475l-3.239 3.239a1.75 1.75 0 0 0 2.475 2.475z"/><path d="m48.6 23.205a1.751 1.751 0 0 0 1.75-1.75v-4.519a1.75 1.75 0 1 0 -3.5 0v4.519a1.751 1.751 0 0 0 1.75 1.75z"/><path d="m29.653 23.818a1.75 1.75 0 0 0 -2.475 2.474l3.265 3.266a1.75 1.75 0 1 0 2.475-2.475z"/></g></svg>